<svg width="280" height="50" viewBox="0 0 280 50" fill="none" xmlns="http://www.w3.org/2000/svg">
<g clip-path="url(#clip0_85_408)">
<path d="M73.5573 45.1355C74.5153 45.1355 75.367 45.029 76.0057 44.8161C76.6444 44.6032 77.1766 44.2839 77.6024 43.8581C78.0282 43.4323 78.2411 43.0064 78.454 42.4742C78.6669 41.9419 78.667 41.4097 78.667 40.8774C78.667 40.2387 78.5605 39.7065 78.3476 39.2806C78.1347 38.7484 77.8153 38.429 77.3895 38.0032C76.9637 37.6839 76.4315 37.3645 75.7928 37.2581C75.154 37.0452 74.4089 36.9387 73.4508 36.9387H68.2347V45.1355H73.5573V45.1355ZM68.2347 25.229V33.3194H72.3863C74.196 33.3194 75.4734 33 76.4315 32.3613C77.3895 31.7226 77.8153 30.6581 77.8153 29.2742C77.8153 27.7839 77.3895 26.8258 76.5379 26.1871C75.6863 25.5484 74.4089 25.229 72.7057 25.229H68.2347V25.229ZM72.7057 21.1839C74.5153 21.1839 76.1121 21.3968 77.3895 21.7161C78.6669 22.0355 79.7315 22.5677 80.5831 23.2064C81.4347 23.8452 82.0734 24.5903 82.3928 25.5484C82.8186 26.5064 82.925 27.4645 82.925 28.6355C82.925 29.2742 82.8186 29.9129 82.6057 30.5516C82.3928 31.1903 82.0734 31.7226 81.754 32.2548C81.3282 32.7871 80.796 33.2129 80.1573 33.6387C79.5186 34.0645 78.7734 34.3839 77.9218 34.7032C81.754 35.5548 83.6702 37.6839 83.6702 40.9839C83.6702 42.1548 83.4573 43.2193 83.0315 44.2839C82.6057 45.2419 81.9669 46.2 81.0089 46.8387C80.1573 47.5839 79.0928 48.1161 77.8153 48.5419C76.5379 48.9677 75.154 49.1806 73.4508 49.1806H62.9121V21.1839H72.7057Z" fill="white"/>
<path d="M104.535 29.3806V49.1806H101.661C101.022 49.1806 100.596 48.8613 100.49 48.329L100.064 46.7323C99.2126 47.5839 98.361 48.2226 97.4029 48.7548C96.4449 49.2871 95.2739 49.5 93.89 49.5C92.8255 49.5 91.8675 49.2871 91.0159 48.9677C90.1642 48.6484 89.5255 48.1161 88.8868 47.371C88.3546 46.7323 87.9288 45.8806 87.6094 45.029C87.29 44.071 87.1836 43.1129 87.1836 41.9419V29.3806H91.9739V41.9419C91.9739 43.1129 92.2933 44.071 92.8255 44.7097C93.3578 45.3484 94.2094 45.6677 95.3804 45.6677C96.232 45.6677 96.9771 45.4548 97.7223 45.1355C98.4675 44.8161 99.1062 44.2839 99.7449 43.6452V29.3806H104.535Z" fill="white"/>
<path d="M114.01 20.4387V36.9387H114.862C115.181 36.9387 115.394 36.9387 115.607 36.8323C115.82 36.7258 116.033 36.6194 116.139 36.3L121.036 30.2323C121.249 29.9129 121.462 29.8065 121.675 29.5936C121.887 29.4871 122.207 29.3807 122.633 29.3807H126.997L120.823 36.7258C120.397 37.2581 119.865 37.7903 119.439 38.1097C119.758 38.3226 119.971 38.5355 120.184 38.7484C120.397 38.9613 120.61 39.2807 120.823 39.6L127.423 49.1807H123.058C122.633 49.1807 122.313 49.0742 122.1 48.9678C121.781 48.8613 121.568 48.6484 121.462 48.329L116.352 40.771C116.139 40.4516 116.033 40.2387 115.82 40.2387C115.607 40.1323 115.287 40.1323 114.968 40.1323H113.904V49.1807H109.113V20.4387H114.01V20.4387Z" fill="white"/>
<path d="M134.873 29.3807V49.1806H130.083V29.3807H134.873ZM135.512 23.5258C135.512 23.9516 135.406 24.3774 135.299 24.6968C135.086 25.0161 134.873 25.3355 134.66 25.6548C134.341 25.9742 134.022 26.1871 133.702 26.2936C133.277 26.5065 132.957 26.5065 132.531 26.5065C132.106 26.5065 131.68 26.4 131.36 26.2936C131.041 26.0807 130.722 25.8677 130.402 25.6548C130.083 25.3355 129.87 25.0161 129.764 24.6968C129.551 24.3774 129.551 23.9516 129.551 23.5258C129.551 23.1 129.657 22.6742 129.764 22.3548C129.977 21.929 130.189 21.6097 130.402 21.3968C130.722 21.0774 131.041 20.8645 131.36 20.7581C131.68 20.5452 132.106 20.5452 132.531 20.5452C132.957 20.5452 133.383 20.6516 133.702 20.7581C134.128 20.971 134.448 21.1839 134.66 21.3968C134.98 21.7161 135.193 22.0355 135.299 22.3548C135.512 22.6742 135.512 23.1 135.512 23.5258Z" fill="white"/>
<path d="M146.372 49.5C144.668 49.5 143.284 48.9677 142.433 48.0097C141.475 47.0516 141.049 45.6677 141.049 43.9645V32.8935H139.026C138.814 32.8935 138.601 32.7871 138.388 32.6806C138.175 32.4677 138.068 32.2548 138.068 31.9355V30.0194L141.262 29.4871L142.22 24.0581C142.326 23.8452 142.433 23.6323 142.539 23.4194C142.752 23.3129 142.965 23.2065 143.284 23.2065H145.733V29.4871H151.055V32.8935H145.733V43.6452C145.733 44.2839 145.839 44.7097 146.159 45.1355C146.478 45.4548 146.904 45.6677 147.436 45.6677C147.755 45.6677 147.968 45.6677 148.181 45.5613C148.394 45.4548 148.607 45.4548 148.714 45.3484C148.82 45.2419 149.033 45.2419 149.139 45.1355C149.246 45.029 149.352 45.029 149.459 45.029C149.565 45.029 149.672 45.029 149.778 45.1355C149.884 45.2419 149.991 45.3484 150.097 45.4548L151.481 47.7968C150.736 48.329 149.991 48.8613 149.033 49.0742C148.288 49.2871 147.33 49.5 146.372 49.5Z" fill="white"/>
<path d="M170.962 38.7484L167.13 28.529C166.81 27.7839 166.491 26.7193 166.172 25.5484C166.065 26.1871 165.852 26.7193 165.746 27.2516C165.533 27.7839 165.427 28.2097 165.32 28.6355L161.488 38.7484H170.962ZM179.585 49.1806H176.072C175.646 49.1806 175.327 49.0742 175.114 48.8613C174.901 48.6484 174.688 48.4355 174.581 48.1161L172.239 41.9419H160.21L157.868 48.1161C157.762 48.329 157.549 48.6484 157.336 48.8613C157.123 49.0742 156.804 49.1806 156.378 49.1806H152.865L163.936 21.2903H168.514L179.585 49.1806Z" fill="white"/>
<path d="M193.847 33C193.741 33.2129 193.635 33.3194 193.528 33.4258C193.422 33.5323 193.209 33.5323 192.996 33.5323C192.783 33.5323 192.57 33.4258 192.251 33.3194C192.038 33.2129 191.718 33 191.293 32.8935C190.973 32.6806 190.547 32.5742 190.015 32.4677C189.589 32.3613 188.951 32.2548 188.312 32.2548C187.78 32.2548 187.354 32.3613 186.928 32.4677C186.502 32.5742 186.183 32.7871 185.864 33C185.544 33.2129 185.331 33.5323 185.225 33.7452C185.118 34.0645 185.012 34.3839 185.012 34.7032C185.012 35.129 185.118 35.5548 185.438 35.8742C185.757 36.1936 186.076 36.4065 186.609 36.7258C187.035 36.9387 187.567 37.1516 188.206 37.3645C188.844 37.5774 189.376 37.7903 190.015 37.8968C190.654 38.1097 191.293 38.3226 191.825 38.6419C192.464 38.9613 192.996 39.2806 193.422 39.6C193.847 40.0258 194.273 40.4516 194.593 40.9839C194.912 41.5161 195.018 42.2613 195.018 43.0065C195.018 43.9645 194.806 44.8161 194.486 45.5613C194.167 46.3065 193.635 47.0516 192.996 47.5839C192.357 48.1161 191.506 48.6484 190.547 48.9677C189.589 49.2871 188.525 49.5 187.247 49.5C186.609 49.5 185.864 49.3935 185.225 49.2871C184.586 49.1806 183.947 48.9677 183.415 48.7548C182.883 48.5419 182.351 48.329 181.818 48.0097C181.286 47.6903 180.86 47.371 180.541 47.0516L181.499 45.4548C181.606 45.2419 181.712 45.1355 181.925 45.029C182.138 44.9226 182.351 44.8161 182.564 44.8161C182.883 44.8161 183.096 44.9226 183.415 45.029C183.628 45.2419 183.947 45.3484 184.373 45.5613C184.693 45.7742 185.118 45.9871 185.651 46.0935C186.183 46.3065 186.822 46.3065 187.567 46.3065C188.206 46.3065 188.738 46.2 189.164 46.0935C189.589 45.9871 190.015 45.7742 190.335 45.4548C190.654 45.2419 190.867 44.9226 190.973 44.6032C191.08 44.2839 191.186 43.9645 191.186 43.5387C191.186 43.0065 191.08 42.5806 190.76 42.2613C190.441 41.9419 190.122 41.6226 189.589 41.4097C189.164 41.1968 188.631 40.9839 187.993 40.771C187.354 40.5581 186.822 40.3452 186.183 40.2387C185.544 40.0258 184.906 39.8129 184.373 39.4935C183.735 39.1742 183.202 38.8548 182.776 38.429C182.351 38.0032 181.925 37.471 181.606 36.9387C181.286 36.3 181.18 35.5548 181.18 34.7032C181.18 33.9581 181.286 33.2129 181.606 32.4677C181.925 31.7226 182.351 31.0839 182.989 30.5516C183.628 30.0194 184.373 29.5935 185.225 29.2742C186.076 28.9548 187.141 28.8484 188.312 28.8484C189.589 28.8484 190.867 29.0613 191.931 29.4871C192.996 29.9129 193.954 30.4452 194.699 31.1903L193.847 33Z" fill="white"/>
<path d="M209.497 40.5581C208.006 40.5581 206.729 40.771 205.771 40.8774C204.706 41.0903 203.961 41.3032 203.323 41.6226C202.684 41.9419 202.258 42.2613 201.939 42.6871C201.619 43.1129 201.513 43.5387 201.513 43.9645C201.513 44.3903 201.619 44.8161 201.726 45.1355C201.832 45.4548 202.045 45.7742 202.365 45.9871C202.577 46.2 202.897 46.3064 203.323 46.4129C203.642 46.5193 204.068 46.5193 204.494 46.5193C205.558 46.5193 206.516 46.3064 207.261 45.8806C208.006 45.4548 208.752 44.9226 209.497 44.071V40.5581V40.5581ZM198.426 32.1484C200.661 30.1258 203.323 29.0613 206.41 29.0613C207.581 29.0613 208.539 29.2742 209.39 29.5935C210.242 29.9129 210.987 30.4452 211.626 31.1903C212.265 31.829 212.69 32.6806 213.01 33.5322C213.329 34.4903 213.436 35.4484 213.436 36.6193V49.1806H211.626C211.2 49.1806 210.881 49.0742 210.668 48.9677C210.455 48.8613 210.242 48.6484 210.136 48.2226L209.71 46.6258C209.177 47.0516 208.752 47.4774 208.219 47.7968C207.687 48.1161 207.261 48.4355 206.729 48.6484C206.197 48.8613 205.665 49.0742 205.026 49.1806C204.387 49.2871 203.748 49.3935 203.003 49.3935C202.152 49.3935 201.407 49.2871 200.768 49.0742C200.129 48.8613 199.49 48.5419 198.958 48.1161C198.426 47.6903 198.106 47.1581 197.787 46.4129C197.468 45.7742 197.361 45.029 197.361 44.071C197.361 43.3258 197.574 42.5806 198 41.8355C198.426 41.0903 199.065 40.4516 200.023 39.9193C200.981 39.3871 202.152 38.8548 203.748 38.5355C205.239 38.1097 207.155 37.8968 209.39 37.8968V36.6193C209.39 35.2355 209.071 34.171 208.432 33.4258C207.794 32.6806 206.942 32.3613 205.771 32.3613C204.919 32.3613 204.281 32.4677 203.748 32.6806C203.216 32.8935 202.684 33.1064 202.365 33.3193C201.939 33.5322 201.619 33.7452 201.3 33.9581C200.981 34.171 200.661 34.2774 200.342 34.2774C200.023 34.2774 199.81 34.171 199.597 34.0645C199.384 33.9581 199.277 33.7452 199.065 33.5322L198.426 32.1484Z" fill="white"/>
<path d="M218.332 49.1806V29.4871H220.887C221.419 29.4871 221.845 29.7 221.951 30.2322L222.271 31.9355C222.59 31.5097 223.016 31.1903 223.442 30.7645C223.868 30.4452 224.293 30.1258 224.719 29.9129C225.145 29.7 225.677 29.4871 226.103 29.2742C226.635 29.1677 227.168 29.0613 227.806 29.0613C228.445 29.0613 228.977 29.1677 229.509 29.3806C230.042 29.5935 230.468 29.8064 230.893 30.1258C231.319 30.4452 231.638 30.871 231.958 31.2968C232.277 31.7226 232.49 32.3613 232.703 32.8935C233.022 32.2548 233.342 31.6161 233.874 31.0839C234.3 30.5516 234.832 30.2322 235.364 29.9129C235.897 29.5935 236.535 29.3806 237.174 29.2742C237.813 29.1677 238.451 29.0613 239.09 29.0613C240.155 29.0613 241.113 29.2742 241.964 29.5935C242.816 29.9129 243.455 30.4452 244.093 31.0839C244.626 31.7226 245.051 32.4677 245.371 33.4258C245.69 34.3839 245.797 35.4484 245.797 36.6193V49.1806H241.645V36.6193C241.645 35.2355 241.326 34.171 240.793 33.4258C240.155 32.6806 239.303 32.3613 238.132 32.3613C237.6 32.3613 237.068 32.4677 236.642 32.6806C236.216 32.8935 235.79 33.1064 235.471 33.4258C235.151 33.7452 234.832 34.171 234.619 34.7032C234.406 35.2355 234.3 35.8742 234.3 36.5129V49.0742H229.935V36.6193C229.935 35.129 229.616 34.0645 229.084 33.4258C228.551 32.7871 227.7 32.3613 226.529 32.3613C225.784 32.3613 225.038 32.5742 224.4 33C223.761 33.4258 223.122 33.9581 222.59 34.5968V49.1806H218.332Z" fill="white"/>
<path d="M274.645 14.9032C274.645 15.329 274.219 15.7548 273.793 15.7548C273.367 15.7548 272.941 15.329 272.941 14.9032C272.941 14.4774 273.367 14.0516 273.793 14.0516C274.325 14.0516 274.645 14.371 274.645 14.9032Z" fill="white"/>
<path d="M275.178 32.5742C275.178 32.1484 274.752 31.7226 274.326 31.7226C273.9 31.7226 273.475 32.1484 273.475 32.5742C273.475 33 273.9 33.4258 274.326 33.4258C274.752 33.4258 275.178 33 275.178 32.5742Z" fill="white"/>
<path d="M275.496 23.8452C275.496 23.4194 275.07 22.9936 274.645 22.9936C274.219 22.9936 273.793 23.4194 273.793 23.8452C273.793 24.271 274.219 24.6968 274.645 24.6968C275.07 24.6968 275.496 24.3774 275.496 23.8452Z" fill="white"/>
<path d="M276.668 16.5L275.284 17.5645C276.562 19.3742 277.307 21.5032 277.307 23.9516C277.307 26.4 276.455 28.6355 275.178 30.4452L276.562 31.5097C278.158 29.3806 279.116 26.8258 279.116 23.9516C279.01 21.1839 278.158 18.629 276.668 16.5Z" fill="white"/>
<path d="M266.555 34.7032C266.555 34.7032 266.449 34.7032 266.555 34.7032V32.8935C270.707 32.8935 274.22 30.0193 275.178 26.2935H273.368C272.41 29.1677 269.749 31.1903 266.555 31.1903C262.617 31.1903 259.317 27.9968 259.317 23.9516C259.317 19.9064 262.51 16.7129 266.555 16.7129C269.749 16.7129 272.41 18.7355 273.368 21.6097H275.178C274.113 17.7774 270.707 15.0097 266.555 15.0097V13.2C268.152 13.2 269.643 13.5193 270.92 14.1581L271.665 12.5613C270.068 11.8161 268.365 11.4968 266.555 11.4968C259.636 11.4968 253.994 17.1387 253.994 24.0581C253.994 30.9774 259.636 36.6193 266.555 36.6193C268.897 36.6193 271.133 35.9806 273.049 34.8097L272.091 33.3193C270.494 34.0645 268.578 34.7032 266.555 34.7032Z" fill="white"/>
<path d="M26.08 6.91935C26.08 6.91935 36.2993 -0.425807 46.0929 8.94193C53.4381 15.9677 49.3929 33.9581 39.4929 33.9581C39.4929 33.9581 37.5768 34.3839 32.7864 32.1484C27.9961 29.9129 22.4606 28.4226 15.5413 32.6806C8.72838 37.0452 -1.06517 32.2548 0.105796 14.7968C0.638054 6.49355 7.1316 0 7.1316 0H24.909C24.909 0 14.6897 9.36774 14.6897 17.1387C14.6897 24.9097 20.651 27.9968 24.909 27.9968C29.1671 27.9968 35.6606 24.8032 35.6606 17.1387C35.6606 9.47419 28.7413 7.02581 26.08 6.91935Z" fill="white"/>
<path d="M0 31.6161V49.1806H49.9258V31.0839C49.9258 31.0839 47.9032 38.0032 38.6419 38.0032C31.0839 38.0032 29.8064 33.3193 25.0161 33.3193C20.2258 33.3193 19.0548 37.6839 9.58064 37.6839C2.66129 37.6839 0 31.6161 0 31.6161Z" fill="white"/>
</g>
<defs>
<clipPath id="clip0_85_408">
<rect width="279.01" height="49.5" fill="white"/>
</clipPath>
</defs>
</svg>
